<svg width="24" height="22" viewBox="0 0 24 22" fill="none" xmlns="http://www.w3.org/2000/svg">
<g filter="url(#filter0_d_597_238)">
<path opacity="0.4" d="M6.4 7.20002C7.2825 7.20002 8 6.48252 8 5.60002C8 4.71752 7.2825 4.00002 6.4 4.00002C5.5175 4.00002 4.8 4.71752 4.8 5.60002C4.8 6.48252 5.5175 7.20002 6.4 7.20002ZM17.6 7.20002C18.4825 7.20002 19.2 6.48252 19.2 5.60002C19.2 4.71752 18.4825 4.00002 17.6 4.00002C16.7175 4.00002 16 4.71752 16 5.60002C16 6.48252 16.7175 7.20002 17.6 7.20002ZM18.4 8.00002H16.8C16.36 8.00002 15.9625 8.17753 15.6725 8.46502C16.68 9.01753 17.395 10.015 17.55 11.2H19.2C19.6425 11.2 20 10.8425 20 10.4V9.60003C20 8.71753 19.2825 8.00002 18.4 8.00002ZM12 8.00002C13.5475 8.00002 14.8 6.74752 14.8 5.20002C14.8 3.65252 13.5475 2.40002 12 2.40002C10.4525 2.40002 9.2 3.65252 9.2 5.20002C9.2 6.74752 10.4525 8.00002 12 8.00002ZM13.92 8.80002H13.7125C13.1925 9.05002 12.615 9.20003 12 9.20003C11.385 9.20003 10.81 9.05002 10.2875 8.80002H10.08C8.49 8.80002 7.2 10.09 7.2 11.68V12.4C7.2 13.0625 7.7375 13.6 8.4 13.6H15.6C16.2625 13.6 16.8 13.0625 16.8 12.4V11.68C16.8 10.09 15.51 8.80002 13.92 8.80002ZM8.3275 8.46502C8.0375 8.17753 7.64 8.00002 7.2 8.00002H5.6C4.7175 8.00002 4 8.71753 4 9.60003V10.4C4 10.8425 4.3575 11.2 4.8 11.2H6.4475C6.605 10.015 7.32 9.01753 8.3275 8.46502Z" fill="#9FA2B4"/>
</g>
<defs>
<filter id="filter0_d_597_238" x="0" y="0" width="24" height="24" filterUnits="userSpaceOnUse" color-interpolation-filters="sRGB">
<feFlood flood-opacity="0" result="BackgroundImageFix"/>
<feColorMatrix in="SourceAlpha" type="matrix" values="0 0 0 0 0 0 0 0 0 0 0 0 0 0 0 0 0 0 127 0" result="hardAlpha"/>
<feOffset dy="4"/>
<feGaussianBlur stdDeviation="2"/>
<feComposite in2="hardAlpha" operator="out"/>
<feColorMatrix type="matrix" values="0 0 0 0 0 0 0 0 0 0 0 0 0 0 0 0 0 0 0.25 0"/>
<feBlend mode="normal" in2="BackgroundImageFix" result="effect1_dropShadow_597_238"/>
<feBlend mode="normal" in="SourceGraphic" in2="effect1_dropShadow_597_238" result="shape"/>
</filter>
</defs>
</svg>
