<svg width="20" height="20" viewBox="0 0 20 20" fill="none" xmlns="http://www.w3.org/2000/svg">
<path d="M9.99994 13.75C8.02468 13.75 6.42572 12.2211 6.27859 10.2836L3.54682 8.17244C3.1877 8.62296 2.85723 9.09927 2.59057 9.6201C2.53099 9.73794 2.49996 9.86813 2.49996 10.0002C2.49996 10.1322 2.53099 10.2624 2.59057 10.3803C4.00281 13.1357 6.79864 15 9.99994 15C10.7007 15 11.3768 14.8959 12.0283 14.7277L10.677 13.6821C10.4539 13.7252 10.2272 13.7479 9.99994 13.75ZM18.1723 15.2631L15.2934 13.0381C16.168 12.3011 16.8872 11.3975 17.4093 10.38C17.4689 10.2622 17.4999 10.132 17.4999 9.99992C17.4999 9.86787 17.4689 9.73768 17.4093 9.61984C15.9971 6.86437 13.2012 5.00005 9.99994 5.00005C8.65919 5.00167 7.34021 5.33921 6.16348 5.98182L2.85046 3.42114C2.80726 3.38752 2.75786 3.36275 2.70507 3.34823C2.65229 3.33371 2.59717 3.32974 2.54285 3.33654C2.48853 3.34333 2.43609 3.36076 2.38851 3.38784C2.34093 3.41491 2.29915 3.45109 2.26557 3.49432L1.75437 4.15239C1.68656 4.23963 1.65617 4.35023 1.66989 4.45986C1.68361 4.5695 1.74032 4.6692 1.82755 4.73703L17.1494 16.579C17.1926 16.6126 17.242 16.6373 17.2948 16.6519C17.3476 16.6664 17.4027 16.6704 17.457 16.6636C17.5113 16.6568 17.5638 16.6393 17.6114 16.6123C17.659 16.5852 17.7007 16.549 17.7343 16.5058L18.2458 15.8477C18.3136 15.7604 18.3439 15.6498 18.3301 15.5402C18.3164 15.4305 18.2596 15.3309 18.1723 15.2631ZM13.388 11.5652L12.3645 10.774C12.4507 10.5249 12.4964 10.2636 12.4999 10C12.505 9.61418 12.4195 9.2325 12.2503 8.88566C12.0812 8.53882 11.833 8.2365 11.5258 8.00297C11.2185 7.76944 10.8608 7.61122 10.4814 7.54102C10.1019 7.47082 9.71126 7.49059 9.34083 7.59875C9.49786 7.81153 9.58281 8.06892 9.58327 8.33338C9.57939 8.42138 9.56594 8.5087 9.54317 8.5938L7.62624 7.11229C8.29212 6.55583 9.13216 6.25069 9.99994 6.25005C10.4925 6.24977 10.9802 6.34658 11.4353 6.53494C11.8904 6.7233 12.3039 6.99951 12.6522 7.34779C13.0005 7.69606 13.2767 8.10957 13.465 8.56466C13.6534 9.01976 13.7502 9.50751 13.7499 10C13.7499 10.5633 13.6122 11.0883 13.388 11.5654V11.5652Z" fill="#9FA2B4"/>
</svg>
