<svg width="16" height="16" viewBox="0 0 16 16" fill="none" xmlns="http://www.w3.org/2000/svg">
<g opacity="0.4">
<path d="M3.55556 5.33341H12.4444V10.6667H3.55556V5.33341ZM14.6667 8.00008C14.6667 8.73647 15.2636 9.33341 16 9.33341V12.0001C16 12.7365 15.4031 13.3334 14.6667 13.3334H1.33333C0.596944 13.3334 0 12.7365 0 12.0001V9.33341C0.736389 9.33341 1.33333 8.73647 1.33333 8.00008C1.33333 7.26369 0.736389 6.66675 0 6.66675V4.00008C0 3.26369 0.596944 2.66675 1.33333 2.66675H14.6667C15.4031 2.66675 16 3.26369 16 4.00008V6.66675C15.2636 6.66675 14.6667 7.26369 14.6667 8.00008ZM13.3333 5.11119C13.3333 4.743 13.0349 4.44453 12.6667 4.44453H3.33333C2.96514 4.44453 2.66667 4.743 2.66667 5.11119V10.889C2.66667 11.2572 2.96514 11.5556 3.33333 11.5556H12.6667C13.0349 11.5556 13.3333 11.2572 13.3333 10.889V5.11119Z" fill="#DDE2FF"/>
</g>
</svg>
